<svg width="32" height="32" viewBox="0 0 32 32" fill="none" xmlns="http://www.w3.org/2000/svg">
<g id="workspace_premium_FILL0_wght400_GRAD0_opsz48 1">
<path id="Vector" d="M12.8333 18.2667L14.0333 14.4333L10.8666 11.9667H14.7333L16 7.99999L17.2333 11.9667H21.1333L17.9666 14.4333L19.1333 18.2667L16 15.9L12.8333 18.2667ZM8.13331 30.6667V20.5333C7.13331 19.4889 6.41665 18.3444 5.98331 17.1C5.54998 15.8555 5.33331 14.6 5.33331 13.3333C5.33331 10.3111 6.35554 7.77777 8.39998 5.73332C10.4444 3.68888 12.9778 2.66666 16 2.66666C19.0222 2.66666 21.5555 3.68888 23.6 5.73332C25.6444 7.77777 26.6666 10.3111 26.6666 13.3333C26.6666 14.6 26.45 15.8555 26.0166 17.1C25.5833 18.3444 24.8666 19.4889 23.8666 20.5333V30.6667L16 28.0333L8.13331 30.6667ZM16 22C18.4222 22 20.4722 21.1611 22.15 19.4833C23.8277 17.8055 24.6666 15.7555 24.6666 13.3333C24.6666 10.9111 23.8277 8.8611 22.15 7.18332C20.4722 5.50554 18.4222 4.66666 16 4.66666C13.5778 4.66666 11.5278 5.50554 9.84998 7.18332C8.1722 8.8611 7.33331 10.9111 7.33331 13.3333C7.33331 15.7555 8.1722 17.8055 9.84998 19.4833C11.5278 21.1611 13.5778 22 16 22ZM10.1333 27.8667L16 26.0333L21.8666 27.8667V22.1667C20.9777 22.8111 20.0222 23.2778 19 23.5667C17.9778 23.8555 16.9778 24 16 24C15.0222 24 14.0222 23.8555 13 23.5667C11.9778 23.2778 11.0222 22.8111 10.1333 22.1667V27.8667Z" fill="#333333" stroke="#333333" stroke-width="0.5"/>
</g>
</svg>
